Coordinates
version=1
nRows=11
nColumns=36
inDegrees=yes

Units are S.I. units (second, meters, Newtons, ...)
If the header above contains a line with 'inDegrees', this indicates whether rotational values are in degrees (yes) or radians (no).

endheader
time	pelvis_tilt	pelvis_list	pelvis_rotation	pelvis_tx	pelvis_ty	pelvis_tz	hip_flexion_r	hip_adduction_r	hip_rotation_r	knee_angle_r	knee_angle_r_beta	ankle_angle_r	subtalar_angle_r	mtp_angle_r	hip_flexion_l	hip_adduction_l	hip_rotation_l	knee_angle_l	knee_angle_l_beta	ankle_angle_l	subtalar_angle_l	mtp_angle_l	lumbar_extension	lumbar_bending	lumbar_rotation	arm_flex_r	arm_add_r	arm_rot_r	elbow_flex_r	pro_sup_r	arm_flex_l	arm_add_l	arm_rot_l	elbow_flex_l	pro_sup_l
      1.48333330	     -0.75491142	     -1.03670862	     13.75267972	     -0.16923018	      1.29534601	      0.36969649	      1.30482877	     -0.74688783	      1.31668577	      6.96301037	      0.12152746	     21.85899523	      6.78089534	     -7.49999987	      1.36763903	     -1.53589706	     -0.77855102	      6.96150021	      0.12150110	     26.21708299	     12.03256323	     -7.49999987	     -9.69624282	      0.07196384	     -4.37841172	    -18.32691010	    -42.03935450	     33.92642676	     84.19356652	     71.28792123	    -27.03669858	    -34.38691740	     20.12789764	     84.85089757	     78.10987904
      1.50000000	     -1.30445011	     -1.28870638	     13.67067962	     -0.15964761	      1.29021082	      0.37219915	      2.43918623	     -0.62286302	      1.60091877	      7.72350606	      0.13480061	     22.22574056	      6.72211248	     -7.49999987	      2.67740118	     -1.68019867	     -0.98625444	      8.02683568	      0.14009471	     26.57734554	     11.75053493	     -7.49999987	    -10.51511535	      0.12113621	     -4.17174817	    -18.52012315	    -41.95053730	     32.75663991	     84.29036422	     74.43958705	    -27.30106607	    -34.11700239	     19.14192176	     84.84656044	     82.20027701
      1.51666670	     -2.16726931	     -1.59565191	     13.60068763	     -0.16794376	      1.28883029	      0.36892378	      4.10482818	     -0.55775542	      1.86701932	      8.77330230	      0.15312301	     22.62323424	      6.60999090	     -7.49999987	      4.52915880	     -1.82051670	     -1.10443035	      9.33043642	      0.16284684	     27.30541210	     11.80875933	     -7.49999987	    -11.17943530	      0.22478835	     -3.87920553	    -18.35504523	    -42.23773550	     32.64254464	     84.52119509	     74.53471649	    -27.40395842	    -33.94991895	     19.02257200	     84.83371674	     82.24096388
      1.53333330	     -3.08934141	     -1.88624997	     13.48686191	     -0.16682764	      1.29172542	      0.36864973	      5.82854346	     -0.54100335	      2.11126362	      9.94704091	      0.17360861	     23.06982233	      6.43509793	     -7.49999987	      6.35268854	     -1.91983036	     -1.28575535	     10.52750980	      0.18373971	     27.73379359	     11.66489317	     -7.49999987	    -11.71784271	      0.30920764	     -3.56612406	    -18.09024067	    -42.31650039	     32.36759308	     84.27840749	     74.63594404	    -27.38648269	    -33.53933077	     18.60994337	     84.50965609	     82.30050639
      1.55000000	     -3.77780222	     -2.10361395	     13.37253948	     -0.15728233	      1.28812201	      0.37110879	      6.98293885	     -0.48998935	      2.35053744	     10.85971006	      0.18953770	     23.65563487	      6.45543478	     -7.49999987	      7.74296944	     -2.02245412	     -1.58270439	     11.63126136	      0.20300381	     28.15326756	     11.63822041	     -7.49999987	    -12.28517663	      0.21771039	     -3.22808376	    -18.11918733	    -42.29689345	     32.03561704	     84.06227492	     74.74412092	    -27.57889246	    -33.40750213	     18.09279018	     84.64112781	     82.37315866
      1.56666670	     -4.69257242	     -2.42890708	     13.47699710	     -0.15691459	      1.28592162	      0.37077372	      8.59106092	     -0.41044288	      2.64817105	     11.95213477	      0.20860410	     24.29168582	      6.22555349	     -7.49999987	      9.47318643	     -2.14672613	     -1.76935973	     12.86270060	      0.22449648	     28.56987709	     11.74044216	     -7.49999987	    -13.06998676	      0.24962972	     -2.90166765	    -17.81651804	    -42.40466735	     32.24171585	     83.77103901	     73.12800114	    -27.15722408	    -33.53389287	     18.45554674	     84.25102946	     80.04475023
      1.58333330	     -5.63390272	     -2.73795614	     13.40427745	     -0.15534996	      1.27791342	      0.37006748	     10.27684089	     -0.33699260	      3.01228992	     13.19106540	      0.23022752	     25.02335411	      5.98638986	     -7.49999987	     11.23114071	     -2.28427217	     -1.98567161	     14.25474459	      0.24879223	     29.14032793	     11.79609593	     -7.49999987	    -13.93771163	      0.19515174	     -2.41403031	    -17.75098945	    -42.74473493	     31.96023722	     83.68737620	     76.06185459	    -27.00146213	    -33.75323672	     18.18990494	     84.44199603	     83.19357586
      1.60000000	     -6.35874442	     -3.05107818	     13.43164208	     -0.16404278	      1.26915203	      0.36681952	     12.40776550	     -0.26632780	      3.50531943	     15.57130226	      0.27177049	     26.11279964	      5.30135037	     -7.49999987	     13.26027576	     -2.38633047	     -1.57464140	     16.33927041	      0.28517407	     29.89225048	     11.10584036	     -7.49999987	    -15.58536158	      0.44444540	     -2.25332280	    -17.26567437	    -43.14415720	     31.72243429	     83.45417833	     75.53827205	    -26.37834043	    -33.66850080	     18.08915169	     84.53657054	     82.44310326
      1.61666670	     -8.16703697	     -3.64669189	     13.29342777	     -0.16372899	      1.26424353	      0.36673745	     16.29301371	     -0.13617540	      4.05057055	     19.03400474	      0.33220605	     27.54448951	      4.80220663	     -7.49999987	     17.14949227	     -2.70411995	     -2.01471485	     19.65934743	      0.34312034	     31.81201826	     11.49840904	     -7.49999987	    -16.00473200	      0.60480912	     -1.86035995	    -17.24218124	    -43.77500051	     31.38709241	     84.02745706	     75.53450495	    -26.15107193	    -34.03898587	     18.00631466	     85.49746261	     82.52390380
      1.63333330	     -9.63278300	     -4.08351549	     13.15245408	     -0.16274405	      1.25691354	      0.36666041	     19.98141733	     -0.05774825	      4.74653361	     22.97154830	      0.40092915	     29.24692001	      4.10230580	     -7.49999987	     20.60855241	     -2.90461711	     -2.15887145	     23.13711114	      0.40381877	     33.31493541	     11.07092777	     -7.49999987	    -16.80829177	      0.76159060	     -1.36285614	    -17.17371556	    -44.32728720	     30.89960928	     84.19118135	     75.40690871	    -25.66289357	    -33.97972875	     18.02876090	     85.67095570	     82.44674868
      1.65000000	    -11.05944234	     -4.40847558	     13.04676557	     -0.16181163	      1.25738966	      0.36611763	     23.51663546	     -0.10150170	      5.21282402	     26.88107745	      0.46916331	     31.10870108	      3.88235905	     -7.49999987	     23.92264529	     -3.00262892	     -2.29863902	     26.58083000	      0.46392300	     34.62735032	     10.62948702	     -7.49999987	    -17.45860388	      0.77565202	     -0.83273956	    -17.42943320	    -44.49113506	     30.30785959	     84.03119136	     75.44470509	    -25.05296576	    -33.74491050	     18.36835597	     85.41016988	     82.52969989
